<?xml version="1.0" standalone="no"?>
<!DOCTYPE svg PUBLIC "-//W3C//DTD SVG 20010904//EN"
 "http://www.w3.org/TR/2001/REC-SVG-20010904/DTD/svg10.dtd">
<svg version="1.0" xmlns="http://www.w3.org/2000/svg"
 width="70.000000pt" height="70.000000pt" viewBox="0 0 70.000000 70.000000"
 preserveAspectRatio="xMidYMid meet">
<metadata>
Created by potrace 1.11, written by Peter Selinger 2001-2013
</metadata>
<g transform="translate(0.000000,70.000000) scale(0.100000,-0.100000)"
fill="#000000" stroke="none">
<path d="M180 626 c0 -5 -3 -6 -7 -3 -3 4 -12 2 -20 -4 -7 -6 -13 -8 -13 -4 0
10 -53 -47 -68 -73 -7 -13 -10 -27 -7 -32 3 -5 1 -11 -5 -15 -5 -3 -7 -23 -4
-43 3 -20 6 -44 6 -52 0 -8 5 -21 11 -27 5 -7 7 -13 4 -13 -3 0 5 -19 19 -42
13 -24 28 -52 33 -63 9 -19 99 -115 137 -145 57 -45 88 -63 91 -53 3 7 11 9
20 6 11 -4 14 -2 9 5 -4 7 -1 12 7 12 8 0 18 7 21 16 4 9 9 14 12 12 7 -8 110
92 106 103 -1 5 5 9 14 9 8 0 12 5 9 10 -3 6 1 13 9 16 9 3 16 12 16 20 0 8 5
14 10 14 6 0 9 3 8 7 -1 5 6 22 15 40 9 18 18 40 20 50 1 10 5 23 9 28 4 6 5
35 2 65 -5 78 -6 80 -21 80 -8 0 -12 4 -9 9 6 9 -28 43 -63 61 -37 19 -101 21
-108 3 -4 -11 -8 -12 -13 -3 -6 9 -14 6 -29 -9 -11 -11 -21 -18 -21 -15 0 3
-7 -2 -16 -10 -16 -17 -39 -22 -30 -8 6 9 -23 35 -45 40 -7 2 -17 9 -21 15 -5
8 -8 7 -8 -3 0 -9 -3 -11 -8 -5 -9 13 -72 14 -72 1z"/>
</g>
</svg>
