<svg xmlns="http://www.w3.org/2000/svg" viewBox="0 0 1463.28 357.68"><defs><style>.cls-1{fill:#fff;}</style></defs><title>Ресурс 1</title><g id="Слой_2" data-name="Слой 2"><g id="_ÎÓÈ_2" data-name="—ÎÓÈ_2"><path class="cls-1" d="M49.25,331.18a57.84,57.84,0,0,0,1.51,7.52c.68,1.78.68,2.74.41,3.15s-1.65,4.1,1.09,4.92S67.17,348,70,347.32c0,0,4.52-1.5,4.79-2.46s.28-1.91-3.28-2.19-10.95-3.42-10.95-3.42-.41-20.79-1.5-24.21c0,0,2.33-6.71,1.92-8.62,0,0-4-13.41-4.79-14.64a8,8,0,0,0,.41-2.87s-.69-9.17-1.78-11.08-1.78-1.24-1.78-1.24,5.06-7.25,6.16-13.95,3.14-21.89-10.54-35.3l.14-1.64a11.61,11.61,0,0,0,6.7.28s1.64-1,1.92-2.06l1.5-1.36.69-1.92s3.69-3.28,2.19-5.88c0,0-1.37-3.83.68-5.2a14.23,14.23,0,0,0-2.33-15.19s-8.61-9-20.38-8.2A16.92,16.92,0,0,0,27.36,203.4,36.11,36.11,0,0,0,30.51,213s2.87,4.92,1.09,8.48a41.18,41.18,0,0,0-7.8,12.59s-3,7.25-3.14,10c0,0-1.23,3.7,3.42,8.08L27.5,254l-1,3.56s-5.61.41-7.52,3c0,0-.69,2.05.13,2.32,0,0-.13,2.88,1.78,3.56,0,0,.82.14,1-1.23,0,0,5.2.68,6.29-.41l1.1.14-.14,1.09s-5.06.27-7.8,6.57c0,0-6.56,12-1.23,20.79l1.09,1.78.42,7.93s-.42,4-1.65,4.38c0,0-5.88,1-10.39,8.35,0,0-4.11,7.39-5.48,8.89,0,0-3.42-.27-4.1,3,0,0,.27,1.78.55,4.1A49.34,49.34,0,0,1,.68,339s1,4.1,2.47,6.15c0,0,4.1,2.74,7.38,3,0,0,3.42.69,3.56-.95a39.8,39.8,0,0,1-1.78-5.34S10.53,334.6,12,332c0,0,6-9.85,14.5-14.23,0,0,5.47-2,7.39-5.74l3.28-9.31a15.33,15.33,0,0,0,4.79,0S45.83,307,47.06,310c0,0,1.78,3.56,1.1,4,0,0-2.74,5.2-.14,13.27Z"/><path class="cls-1" d="M214.31,329.34s10.92,18.08,12.71,19.87c0,0,7.58-.76,10.39,0,0,0,1.68-2-.62-5.06l-3.58-4.85-2.81-4.85s7.41-10,13.54-14.05L256.2,312s6.9-3.06,5.87-9.19l.77-4.34,3.57-.26.26-4.34,2,4.6-.76,1.79L272,301h3.32s-4.09,11-3.57,21.71v7.66l-1.54,2.05s-2,4.08-1.53,6.89l2.3,2.3s23,1.79,26.56,1l4.09-.76a21,21,0,0,0-11.5-10l-8.42-.76s5.88-19.27,5.11-24.63c0,0,2.81-5.51,1.27-10.1h2.56s-1.35-18.28-7.48-24.15l-1.35-3.85,2.7-.61.51-20.18L292,249.4s6.9,5.62,7.67,7.92c0,0,3.32,1.79-.52-6.64a7.08,7.08,0,0,1,4.6,6.64s1.53,1.79,1.53-1.53c0,0-1.28-6.13-3.83-7.41a11.37,11.37,0,0,1,7.92,4.85s1.28-.76-.26-4.85a21.53,21.53,0,0,0-9.44-4.85l-11.75-7.41-3.32-31.92s-3.58-9.7-5.62-12.52l-3.89-3,.14-2.33a11.22,11.22,0,0,0,6.81.46,6.69,6.69,0,0,0,1.79-4.34l1.25-2.41.13-3,3.22-1.48-1.79-5.87s-.6-4.27,1.58-6.46c0,0,1.35-9.21-4.37-14.66-8.83-8.43-22.74-10.55-29.63-.13-6.78,10.23-2,16.81.26,21.92,0,0,2.89,2.87,5.18,4.65l.8,4.49-1.86,2.69A41.89,41.89,0,0,0,247.41,202s-6.53,49-9.09,57.14l-2.3,13s-1.27,1.53,10.48,0c0,0-5.37,14.81-4.35,21.71l4.85,1.53s1.79,2.3-2.55,7.92c0,0-6.9,0-21.2,20.18C223.25,323.47,214.06,321.17,214.31,329.34Z"/><path class="cls-1" d="M405.87,316s3.85,10.94,5.67,12.76c0,0,6.07,1.82,6.48,9.72,0,0,6.88,12.15,15.79,16.6,0,0,4.25-3.85,4.85-6.68,0,0-2.22-8.1-3.84-9.72,0,0,3.84-3.85,4.65-6.28a16.42,16.42,0,0,1,5.88-3.44s10.52-7.9,16-16.4c0,0,8.51-11.13,13.57-15.18,0,0,15.19-18.84,17.41-22.07l7.9-10.33a36.65,36.65,0,0,1,6.68,12.35s1.26,8.66,3.62,13.38c.14.28.28.54.43.79,2.63,4.46,2.23,4.25,4.25,10.13,0,0,3.85,5.46,5.87,7.29s.21,1.82-.2,4.86-2.63,4.25-1,5.87,1.42,4.05,1.42,4.66v4.25l1,14s9.92.81,13,.81c.6,0,3-4.05,7.69.2,0,0,19-.2,24.5-3.85,0,0-.4-8.5-13.16-8.3l-3.84-8.3s2.22-5.47-1.83-8.5a12.62,12.62,0,0,1-5.47-10.13c0-3.24-3.84-22.88-3.84-25.31s.81-5.67-.81-10.93-3-11.54-5.87-15.39S529,249,528,247.15s-2.23-7.9-4.25-8.5-2.23-2.84-2.84-4.86-2.43-6.89-2.43-6.89-.2-9.92.41-13.36,3-11.75,3-11.75,8.1,3.65,10.33,4.05,7.49-.4,9.11,1.63c0,0,1.22,1.41,2.63-.41s.81.2.81.2,2.84-4.86,2.84-6.48a5.89,5.89,0,0,0,1.82-2.83c.2-1.42-.4-5.06-6.28-4.86,0,0-8.9.4-11.94,2.43,0,0-2,.61-3-.81l-4.86-4.05s4.25-19.64-3-34a33.26,33.26,0,0,0-8.18-11.29l.18-1s9,2.64,10.81.7a13.06,13.06,0,0,0,.35-3.53,1.89,1.89,0,0,1,1.42-2.11c.53,0-.36-1.59-1.42-1.94a16.3,16.3,0,0,1,3-2.29L525.9,133l2.48-2.11a3,3,0,0,0-.71-2.29s-2.48-3.71-.35-5.29c0,0,1.59-6.52-.71-10.76,0,0,1.59-2.64.71-3.69s-.18-2.12-2.84-3.71-3.72-.53-5.67-2.11-5.84-.53-7.79-2.82-6.38-1.06-13.82.7-11.34,11.28-11.34,15.69,6.73,19.92,8.86,21.68l1.24-.17-.71,3.17s-11.63,2.18-12.24,4-12.35,3-13,4.86c0,0-10.12,16-9.52,22.68,0,0,1,15.79,1,23.08,0,0,1,19,17.42,22.48,0,0-2.23,13.77-4.86,29.15,0,0-2.43,15-5.67,19.64,0,0-10.73,7.09-14,10.53s-6.68,7.5-9.92,10.53-9.72,8.31-13,12.36-6.88,7.89-8.3,8.3S407.49,314,405.87,316Z"/><path class="cls-1" d="M711.69,318.2s3.41,5.27.93,10.23c0,0-6.82,10.85-.93,16.43,0,0,20.76,1.86,27,1.86,0,0,24.49-.31,26-2.79,0,0,2.79-5.27-7.44-6.82,0,0-12.71-1.24-16.12-6.82,0,0-3.72-8.06-1.55-11.16,0,0,5.27-5.58,4-16.43,0,0-7.13-31.92-5.89-35s1.86-3.41,2.79-5.58,1.24-26,1.24-30.68.93-18,.93-20.45,2.48-.63,2.48-.63-3.1-41.53-2.17-45.55l10.85-.62s7.75,2.16,11.78,1.85c0,0,6.51-3.1,9-4.64,0,0,3.09-2.79,2.79-3.72l-.32-.93,11.16-8.06a19.28,19.28,0,0,0,.31-5l-13.94,11.16s.62-4.65-2.17-5c0,0-8.68-3.1-13.33-1.86,0,0-12.4,0-14.57-2.17,0,0-.31-20.77-.62-23.56S750.74,105,750.74,105s-9.61-11.78-13.33-14l-1.86-2.17,1.24-4.34s3.41,0,4.65,1.55c0,0,1.86,4.34,4,4.65,0,0,4-.93,4.34-3.1l1.86-.62,1.24-1.55,1.24-.31.62-1.86,4.65-.31-.31-5.58,1.55-5s1.86,2.79,1.86,5c0,0,2.79.31,3.72-4a72.75,72.75,0,0,1,1.24,7.44s5.89-14.56,3.72-24.17-14.26-26.35-33.79-16.43-14.87,24.49-16.73,34.09l2.48.93-4.34,5.27s-16.43,8.68-19.53,14.26l-2.17,4.34S677,109.31,673.88,115.82c0,0-4,17.66-5,20.76,0,0-6.82,16.12-6.51,23.56s.93,19.83,5.27,24.79,21.7,9.92,25.1,10.85,4.34,10.23,4,17-2.17,14.88-.31,19.22S703,244.75,703,244.75A10.49,10.49,0,0,1,699.29,255s-39,35-44.32,36.58-16.11,5-20.14,9,5.58,14.56,9.6,19.52,4,16.12,17.05,23.25c0,0,8.06,2.17,8.06-4.65,0-1.24-4.34-13.64-6.51-18,0,0,13.78-8.33,22.63-13.64,1.54-.93,20.45-18.28,22.93-22.31C708.59,284.73,708.9,311.38,711.69,318.2Z"/><path class="cls-1" d="M999.42,147.07l.59.14S999,146.69,999.42,147.07Z"/><path class="cls-1" d="M1026.66,339.78s-14.05-.2-18.18-2.27c0,0-8.47-3.72-11.78-11.78,0,0-6-19.62-6.61-22.1s-6.82-8.68-7.85-9.72-1.45-3.92-1.24-6.4-3.3-8.89-3.72-11.16-3.51-9.3-4.13-11.36,2.27-5.38,1.86-8.68-3.31-15.5-3.31-20.66-2.06-36.57-2.06-36.57l10.54-.62s4.13-.21,4.75-3.31-7.23-38-6.61-42.36l7,6s5.58,1,6.2-1.23,3.1.2,3.72,2.06L999.8,164s1.24.62,1.66-1.86l1.24-8.27s1-3.92-1.86-5.78a16.66,16.66,0,0,1-1.42-1l-6.23-1.51v-1.65s-11.36-10.33-18.8-14.67c0,0-10.13-39.47-16.32-47.52,0,0-4.14-11.16-4.55-11.78s-5.16-10.33-5.16-10.33,1-8.06,1.24-9.1a96.4,96.4,0,0,0,9.91-1.24,4.37,4.37,0,0,0,.42-5.37l-.42-2.06.62-2.9.42-4.54s2.84-.77,3.1-1.65-.63-2.28-1.45-3.1l-.83-.83-3.72-3.1s.42-3.72,0-5l-2.27-6.2s3.51-2.68,1.45-5.58c0,0-12.61-15.49-32.24-5.78,0,0-15.7,9.92-4.54,30.37l6.4,9.71.21,3.52s-2.07,5.58-3.51,6.2c0,0-9.51,2.9-12.19,8.68,0,0-7.44,10.54-8.06,15.09,0,0-2.07,10.74-2.07,13.84a64.93,64.93,0,0,1-1,8.68,9.89,9.89,0,0,0-1,8.68s.62,7.23.41,8.67-3.1,10.13-2.27,15.29-.21,27.9-.21,27.9l-6.61,34.92,6.82,1.86S889.26,202,888,205.7l-21.9-7.86s-3.3.42-4.34,2.9l-19.42,53.31a4.51,4.51,0,0,0,2.89,5.78l31.62,9.92-5,15.08s-2.69,13.85-4.55,15.91-6.61,8.89-6.61,8.89-3.1,8.06-4.75,11.36-4.75,20.66-4.75,20.66,13.63,5.38,17.14,6c0,0,3.31-3.1,6.2-.42,0,0,4.34,3.31,7.23,3.31l20.67-1.45a40.93,40.93,0,0,0,4.75-3.1c1.45-1.24-1-3.92-2.89-5s-13.85-.61-13.85-.61l-6.82-9.3s1.66-3.31,2.07-4.14,0-9.5,0-9.5,18-22.73,21.49-34.92l.83-1.65,7.64,3.3s4.75,2.69,7.44-1.24l12.6-31.41,13.64,27.89L968,323.87s4.76,6,4.55,8.48-.6,12,0,13.84c.21.62,2.69,5.37,2.69,5.37s33.26,4.13,46.49-1.86l7.85-4.13S1028.53,340,1026.66,339.78Zm-124-127.88-8.47-3.72s0-4.14,3.72-3.72l6.2,3.92Z"/><path class="cls-1" d="M1153,245.09l7,12.18s2.13,4.57,3,6.7,2.75,7.92,4.27,10,4,7.92,4.87,11,1.52,6.39,3.65,10.05,3.66,11.57,5.79,14,9.44,14.32,10.05,17.36-2.74,4.57-3,7.62,1.52,7.92,1.52,10.05-.61,10.05-.61,10.05,17.36,2.13,18.58,1.22,4-.92,5.17-.92,12.49-2.13,17.36-3.35,14.32-4.57,14.32-4.57,1.22-6.09-.92-7-11.26,0-13.4-.61-4-2.74-5.17-3.05a26,26,0,0,1-3.66-1.52s-6.09-4.26-6.7-5.78-2.43-12.19-2.43-12.19l-8.53-35.93-4.27-11.58-1.52-9.44,2.13-6.39-.61-2.13-1.52-8.23-1.83-4.26L1195,232l-2.13-12.18-.61-4.87.61-4.87-1.52-6.7.61-4s.3,1.22,2.74,0,3,.91,4,.3,4.56-1.83,4.87-5.18-1.83-5.78-3.66-7.3-8.83-5.18-8.83-5.18l-1.22-5.48s-3.35-7.62-3.35-8.84,5.49-6.09,6.71-11,2.43-19.79-1.83-29.24c0,0,.61-10.35.61-14.92s-5.79-26.19-6.4-28.32l-.61-2.13,4.27-10-2.75-3.66s3-6.7,8.53-7.61c0,0,2.44.3,2.13-4l.31-1.83-.92-1.52,1.53-.91,1.22-3.35s1.21-1.53,2.13-.92c0,0,2.43-.61,1.82-3.65L1201.68,41l.61-1.82.31-5.79a51.93,51.93,0,0,0,10.05-1.52l1.82-3.35-12.79-4.88s-6.39-8.52-11.57-10-11.57-3.65-18.88,0-13.1,11-12.79,20.71,0,11.58.3,14-5.18,6.09-5.18,6.09-10,2.13-18,18.28c0,0-6.09,11.26-7.91,29.54,0,0-.31,21.62-1.22,23.45a77.34,77.34,0,0,0-3.35,11,27.6,27.6,0,0,0,0,10.05c.61,4,.61,7.92-1.22,10.66s-4.26,4-7.92,12.18,0,24.06.61,32.28a87.88,87.88,0,0,1,0,15.84,67.83,67.83,0,0,1-3.35,15.53c-1.83,5.48-6.09,22.23-7.92,26.19s-8.52,13.4-8.52,16.45-2.44,16.75-2.44,16.75-1.52,10.66-2.13,14.92-9.75,11.57-9.44,12.49-.31,10.66-.31,10.66l-4.87,6.7,8.53,7.61s6.09.61,7.91,3.35,16.45,3.66,30.76,2.13c0,0,2.14-4.26-.3-6.7s-12.49-4-14.62-10.66l3.35-8.22s-1.22-5.79.61-9.14,11-13.09,11-13.09S1142.29,272.5,1153,245.09Z"/><path class="cls-1" d="M1320.41,340.91s-2,5.45-2.22,6.67-1.41,7.88-1.41,7.88l7.67,2h13.75l16,.2,6.06-.2s.81-5.26-.81-6.87-9.29-3.64-9.29-3.64l1.82-13.54,13.74-31.32,3.23,26.88,2.63,2.22-.61,5.25-2,3.24s-1.41-1-1.82,2.62-.4,11.32-.4,11.32,28.29-1,28.9-1.21,22.83-.61,22.83-.61L1420,350l-1.21-5.25s-12.73-1.62-15.16-3c0,0-6.67-11.12-8.49-12.94,0,0,0-3.63.81-5.25,0,0,5.26-5.46,6.06-8.49s.81-21,1-25.46-2-23-2.22-27.69-5-21-5-23.64,0-6.67.4-8.08.81-14.35.81-14.35,1.62,1.82,2.83-.2-2.42-22-2.42-22L1396,180.86l7.28,18.59,23.44,58.61,30.11,77.19-1,1.62,1.82,4s4.65,1.61,5.65-1.82l-2.22-4.85-1,.4-20.21-52.54L1420.24,231,1399,178l1.42-.2a2.49,2.49,0,0,0,2.62.4c1.62-.6,2.23-3.84,2.23-3.84l2.62-1s1.42,2,.61,7.68c0,0,1.42,4,3.64.81,0,0,1.82-8.08-2-13.34,0,0-.41-1.81-4.24-5.45,0,0-.61-2-5.87-1.21l-5.86.4a53,53,0,0,0-3.43-20.81s-5.46-24.66-9.7-32.14L1375.58,96V91.34s5.46,1.82,9.5-2.42c0,0,3.44-2.43,2.63-8.9l-.41-1.81-1.21-1.42,1.62-1.41s2.22-3.44,1.21-4.65c0,0,.81.61,2.43-1,0,0,2-1.21.6-5l-2-4.45s0-3.23,1-3.84l-.2-4.85s3.64-.4,3.64-2.42-1-9.3-19.61-14.76a35.76,35.76,0,0,1-6.87-.6,27.11,27.11,0,0,0-10.1-.41c-3.23.61-7.27.81-7.68,3.24a30.24,30.24,0,0,0-.61,6.87c.2,1.41.2,4.64.2,4.64s-2.42,12.53-.8,15.56l1.41,3s-6.26,1-6.26,3-1.82,4.24-1.82,4.24-9.7,1.82-13.94,11.12S1321.63,96,1322,109.32a132.37,132.37,0,0,0,3,24.25l2.23,19.81,1.81,32.94s1.62,23.84,1,30.71c0,0,5.05,5.26,9.49,6.47,0,0,1.82,8.49,1.82,9.09s2.63,6.27,2.22,8.29-3.43,7.48-2.62,10.1,2.42,6.87,2.42,8.69-1.82,4.45-4.44,6.87-3.44,10.31-3.44,13.74a151.32,151.32,0,0,1-2.22,18.39c-.81,3.84-5.26,14.75-5.26,16.37s-5.45,6.06-4.64,9.7,1,8.09.2,10.11A32.83,32.83,0,0,1,1320.41,340.91Z"/></g></g></svg>